<svg id="SvgjsSvg1012" width="288" height="288" xmlns="http://www.w3.org/2000/svg" version="1.1" xmlns:xlink="http://www.w3.org/1999/xlink" xmlns:svgjs="http://svgjs.com/svgjs"><defs id="SvgjsDefs1013"></defs><g id="SvgjsG1014"><svg xmlns="http://www.w3.org/2000/svg" enable-background="new 0 0 512 512" viewBox="0 0 512 512" width="288" height="288"><rect width="512" height="512" fill="#f5f8ff" display="none" class="colorF5F8FF svgShape"></rect><path fill="#efefef" d="M256.001,78.588l-153.644,88.708v177.412l153.644,88.704l153.641-88.704V167.296L256.001,78.588z M118.358,177.96c12.204-1.247,74.855-8.529,81.65-9.253c-7.405,20.538-32.084,88.976-41.985,116.435c-8.834-23.058-30.487-79.581-39.665-103.561V177.96z M208.163,169.677c20.369,9.953,112.801,55.111,142.75,69.744l-186.89,52.665C194.981,206.234,204.95,178.587,208.163,169.677z M211.904,162.601l44.659-62.792c7.571,10.65,25.3,35.367,43.896,61.293c18.945,26.412,38.356,53.475,49.33,68.866C332.758,221.647,295.12,203.259,211.904,162.601z M361.746,232.979c-8.788-12.414-32.122-44.945-54.785-76.54c-14.038-19.571-27.584-38.456-36.625-51.101l121.206,69.982C386.622,185.918,376.144,207.645,361.746,232.979z M203.727,160.296c-4.954,0.436-60.599,6.902-71.266,8.096l111.151-64.176L203.727,160.296z M118.358,203.94l35.331,92.25l-35.331,31.429V203.94z M157.098,303.866c11.335,14.361,57.758,71.223,82.666,101.696l-119.459-68.969L157.098,303.866z M164.458,300.274l189.234-53.323c-26.954,46.541-93.824,159.95-97.45,166.128C237.749,390.468,179.529,319.242,164.458,300.274z M393.642,189.534v119.558l-27.126-68.342C378.187,220.483,387.492,202.203,393.642,189.534z M268.763,407.569c2.971-5.043,65.551-111.177,92.65-157.992l32.228,81.198v4.694L268.763,407.569z" class="color424651 svgShape"></path></svg></g></svg>